<?xml version="1.0" encoding="iso-8859-1"?>
<!-- Generator: Adobe Illustrator 19.0.0, SVG Export Plug-In . SVG Version: 6.00 Build 0)  -->
<svg version="1.1" id="Layer_1" xmlns="http://www.w3.org/2000/svg" xmlns:xlink="http://www.w3.org/1999/xlink" x="0px" y="0px"
	 viewBox="0 0 473.931 473.931" style="enable-background:new 0 0 473.931 473.931;" xml:space="preserve">
<circle style="fill:#65A844;" cx="236.966" cy="236.966" r="236.966"/>
<g>
	<path style="fill:#7D3719;" d="M238.466,178.587c0,0,4.73-32.31-3.349-52.867c-8.075-20.561,10.788,2.088,10.788,2.088
		l-3.581,51.475L238.466,178.587z"/>
	<polygon style="fill:#7D3719;" points="239.899,353.866 237.628,363.448 244.015,359.946 247.499,364.795 250.473,359.804 
		256.359,361.533 249.684,350.588 	"/>
</g>
<radialGradient id="SVGID_1_" cx="2319.7388" cy="709.1678" r="56.06" gradientTransform="matrix(3.7414 -0.0741 -0.0741 -3.7414 -8514.3467 3077.1316)" gradientUnits="userSpaceOnUse">
	<stop  offset="0" style="stop-color:#E92C25"/>
	<stop  offset="0.6" style="stop-color:#E92C25"/>
</radialGradient>
<path style="fill:url(#SVGID_1_);" d="M289.1,146.946c-17.051,0.348-33.638,7.585-47.576,19.483
	c-14.222-10.978-30.783-17.309-47.524-16.969c-44.871,0.879-89.626,44.856-70.435,112.204
	c17.268,60.594,44.519,100.077,89.379,99.194c12.468-0.243,28.269-3.027,33.1-6.585c5.949,3.659,20.366,4.913,32.471,4.673
	c44.856-0.887,70.54-41.418,85.409-102.659C380.421,188.244,333.963,146.06,289.1,146.946z"/>
<path style="fill:#FFFFFF;" d="M295.06,178.71c0,0,27.375,9.706,36.482,36.295C331.542,215.005,342.637,167.283,295.06,178.71z"/>
<path style="fill:#1D9E49;" d="M193.37,124.795c1.19,6.724,14.032,14.264,27.801,11.794c13.747-2.458,23.932-9.897,22.727-16.625
	C241.003,103.744,193.37,124.795,193.37,124.795z"/>
<g>
</g>
<g>
</g>
<g>
</g>
<g>
</g>
<g>
</g>
<g>
</g>
<g>
</g>
<g>
</g>
<g>
</g>
<g>
</g>
<g>
</g>
<g>
</g>
<g>
</g>
<g>
</g>
<g>
</g>
</svg>
