<?xml version="1.0" encoding="iso-8859-1"?>
<!-- Generator: Adobe Illustrator 19.0.0, SVG Export Plug-In . SVG Version: 6.00 Build 0)  -->
<svg version="1.1" id="Layer_1" xmlns="http://www.w3.org/2000/svg" xmlns:xlink="http://www.w3.org/1999/xlink" x="0px" y="0px"
	 viewBox="0 0 512.001 512.001" style="enable-background:new 0 0 512.001 512.001;" xml:space="preserve">
<circle style="fill:#00DFC1;" cx="255.997" cy="255.996" r="255.996"/>
<path style="fill:#00B5A3;" d="M512,255.999c0-5.074-0.165-10.109-0.456-15.111L330.565,59.91H181.436v37.751l38.127,35.132
	c-4.493,36.705-16.045,87.254-45.513,122.548c-5.347-1.026-10.859-1.583-16.505-1.583c-48.083,0-87.063,38.979-87.063,87.063
	c0,25.532,10.99,48.495,28.497,64.421l100.48,100.48c18.191,4.101,37.111,6.279,56.542,6.279C397.385,512,512,397.385,512,255.999z"
	/>
<path style="fill:#994B00;" d="M325.756,281.397l18.971-18.542c-47.17-48.261-54.071-133.953-54.974-165.195h40.813V59.91h-149.13
	v37.751h40.813c-0.905,31.242-7.805,116.934-54.974,165.195l18.971,18.543c54.549-55.811,61.822-149.666,62.599-183.737h14.314
	C263.935,131.732,271.207,225.586,325.756,281.397z"/>
<path style="fill:#703700;" d="M289.752,97.66h40.813V59.91h-74.568v37.751h7.161c0.777,34.072,8.05,127.926,62.599,183.737
	l18.971-18.543C297.557,214.594,290.657,128.902,289.752,97.66z"/>
<circle style="fill:#FF3C62;" cx="157.548" cy="340.82" r="87.06"/>
<circle style="fill:#FFFFFF;" cx="116.735" cy="308.073" r="19.385"/>
<circle style="fill:#FF0335;" cx="354.456" cy="340.82" r="87.06"/>
<circle style="fill:#E1E1E3;" cx="313.643" cy="308.073" r="19.385"/>
<g>
</g>
<g>
</g>
<g>
</g>
<g>
</g>
<g>
</g>
<g>
</g>
<g>
</g>
<g>
</g>
<g>
</g>
<g>
</g>
<g>
</g>
<g>
</g>
<g>
</g>
<g>
</g>
<g>
</g>
</svg>
